<?xml version="1.0" encoding="UTF-8" standalone="no"?>
<svg
   version="1.0"
   width="468.08817pt"
   height="289.336pt"
   viewBox="0 0 468.08817 289.336"
   preserveAspectRatio="xMidYMid"
   id="svg65841"
   sodipodi:version="0.32"
   inkscape:version="1.3.2 (091e20ef0f, 2023-11-25, custom)"
   sodipodi:docname="sea-conlang-flag-spicy.svg"
   xml:space="preserve"
   inkscape:export-filename="sea-conlang-flag-spicy.png"
   inkscape:export-xdpi="200.15"
   inkscape:export-ydpi="200.15"
   xmlns:inkscape="http://www.inkscape.org/namespaces/inkscape"
   xmlns:sodipodi="http://sodipodi.sourceforge.net/DTD/sodipodi-0.dtd"
   xmlns="http://www.w3.org/2000/svg"
   xmlns:svg="http://www.w3.org/2000/svg"
   xmlns:rdf="http://www.w3.org/1999/02/22-rdf-syntax-ns#"
   xmlns:cc="http://creativecommons.org/ns#"
   xmlns:dc="http://purl.org/dc/elements/1.1/"><defs
     id="defs65864"><clipPath
       id="big_cir"><path
         d="m 170,378 45,15 85,-265 20,-40 H 535 V 473 H 170 Z"
         id="path14" /></clipPath><clipPath
       id="head"><circle
         cx="337.5"
         cy="281.5"
         r="53.5"
         id="circle8" /></clipPath><clipPath
       id="cliparound"><path
         d="m 337.5,223.5 h 100 v -60 h -200 v 100 l 55,55 z m 0,116 h -100 v 60 h 200 v -100 l -55,-55 z"
         id="path11" /></clipPath><clipPath
       id="big_cir-3"><path
         d="m 170,378 45,15 85,-265 20,-40 H 535 V 473 H 170 Z"
         id="path14-6" /></clipPath><clipPath
       id="head-7"><circle
         cx="337.5"
         cy="281.5"
         r="53.5"
         id="circle8-5" /></clipPath><clipPath
       id="cliparound-3"><path
         d="m 337.5,223.5 h 100 v -60 h -200 v 100 l 55,55 z m 0,116 h -100 v 60 h 200 v -100 l -55,-55 z"
         id="path11-5" /></clipPath></defs><sodipodi:namedview
     inkscape:window-height="1042"
     inkscape:window-width="1920"
     inkscape:pageshadow="2"
     inkscape:pageopacity="0.0"
     borderopacity="1.0"
     bordercolor="#666666"
     pagecolor="#ffffff"
     id="base"
     inkscape:zoom="0.94896552"
     inkscape:cx="281.35901"
     inkscape:cy="238.15407"
     inkscape:window-x="3000"
     inkscape:window-y="38"
     inkscape:current-layer="svg65841"
     inkscape:guide-points="true"
     inkscape:showpageshadow="2"
     inkscape:pagecheckerboard="0"
     inkscape:deskcolor="#d1d1d1"
     inkscape:document-units="pt"
     showgrid="false"
     inkscape:window-maximized="1" /><metadata
     id="metadata65843">
Created by potrace 1.7, written by Peter Selinger 2001-2005
<rdf:RDF><cc:Work
     rdf:about=""><dc:format>image/svg+xml</dc:format><dc:type
       rdf:resource="http://purl.org/dc/dcmitype/StillImage" /></cc:Work></rdf:RDF></metadata><rect
     style="fill:#f9f9f9;fill-opacity:1;stroke:none;stroke-width:0.1;stroke-miterlimit:4;stroke-dasharray:none;stroke-opacity:1"
     id="rect23"
     width="468"
     height="289.336"
     x="0.00048627928"
     y="0" /><path
     style="fill:#00839a;fill-opacity:1;stroke:none"
     id="path39"
     d="M 8.4390622e-4,220.76338 0.8688339,220.40171 c 5.13567,-1.88069 27.8483501,-8.96942 36.3836901,-11.35644 21.62769,-5.85905 63.508686,-14.17746 82.821686,-16.34748 2.387,-0.28934 4.4847,-0.72334 4.6293,-0.94035 0.217,-0.28933 -0.434,-3.11036 -1.3743,-6.36539 -5.208,-18.01116 -5.208,-39.71136 0.072,-57.93953 8.1013,-27.993257 29.078,-52.442157 57.071,-66.474947 8.1013,-4.12304 22.9297,-9.04175 32.55,-10.77777 l 7.2334,-1.37434 c 0,0 11.1469,-1.05378 14.105,-1.05378 2.7398,0 14.105,1.05378 14.105,1.05378 l 7.2333,1.37434 c 23.5807,4.34004 46.004,15.91348 62.062,31.8993 7.595,7.59507 11.067,11.86277 16.6367,20.759857 15.3347,24.52122 19.8193,56.20352 11.718,83.97977 -0.9403,3.25503 -1.3609,6.46452 -1.3743,6.43773 0.01,0.0192 1.1767,0.3815 2.17,0.57867 5.8393,1.15916 43.68733,7.31408 69.7293,13.45412 9.54603,2.25071 34.7924,10.1991 44.702,14.10513 2.8934,1.15735 6.74558,2.33956 6.74556,2.26628 L 468.08817,0 8.4390622e-4,3.3496094e-6 Z"
     sodipodi:nodetypes="ccccsccccccccccccsscsccc" /><ellipse
     style="fill:#f9f9f9;fill-opacity:1;stroke:none;stroke-width:10.1911;stroke-linecap:round;stroke-linejoin:round;stroke-dasharray:none;stroke-opacity:1;paint-order:stroke markers fill"
     id="path40"
     cx="190.68906"
     cy="182.65599"
     rx="156.54242"
     ry="132.06398"
     transform="matrix(0.98607305,-0.16631276,0.2159079,0.97641373,0,0)" /><path
     id="path106"
     style="fill:#00839a;fill-opacity:1;fill-rule:evenodd;stroke:#808080;stroke-width:0px"
     d="M 379.12736,15.082713 92.480234,9.1299033 58.659404,124.34214 l -3.44478,79.97948 c 8.48291,-2.1593 18.60759,-3.54371 26.94218,-5.34895 -8.64546,-20.34607 -7.25729,-46.28143 19.447956,-66.7697 l 14.5957,-27.76758 c -8.44361,-30.803327 32.14712,-66.085957 61.85596,-54.358887 l 35.61328,-9.37353 c 22.27697,-26.75642 76.03793,-19.67459 88.28028,17.87988 l 28.69775,19.40772 c 35.53099,3.11797 59.25252,48.435517 36.97559,75.191887 -0.61746,12.18154 8.46037,33.90154 3.32669,44.93959 11.85541,2.42459 26.78479,3.21693 36.58883,5.74986 z M 92.033474,216.1766 c -9.44485,1.61917 -17.99659,3.30866 -26.12988,5.00537 l 41.790526,7.14698 C 101.95071,225.2288 96.619044,221.08407 92.033474,216.1766 Z"
     sodipodi:nodetypes="ccccccccccccccccccc" /><path
     d="m 527.5,281.5 c 0,104.93417 -85.0659,189.99992 -190,189.99992 -104.9341,0 -190,-85.06575 -190,-189.99992 0,-104.93417 201.85301,-165.53678 210.68541,-166.16519 C 462.85492,107.88775 527.5,176.56583 527.5,281.5 Z m -20,0 c 0,93.88847 -76.11159,169.99993 -170,169.99993 -93.88841,0 -170,-76.11146 -170,-169.99993 0,-93.88847 166.95378,-144.47674 190.68541,-146.1652 C 451.83708,128.67164 507.5,187.61153 507.5,281.5 Z"
     transform="matrix(-0.57394285,-0.38814513,0.38814513,-0.57394285,317.29691,468.77901)"
     clip-path="url(#big_cir-3)"
     id="path33-6"
     style="fill:#00839a;fill-rule:evenodd;stroke:none;stroke-width:0;stroke-dasharray:none"
     sodipodi:nodetypes="ssssssssss" /><path
     d="m 298.72928,80.661923 27.12428,-4.24025 18.2834,24.911227 -22.15981,1.92854 0.0484,-0.1533 z M 187.34222,69.738913 c 6.80083,-11.29307 14.54718,-20.2738 25.93953,-28.4617 l 32.86368,-0.35879 -22.24387,21.76017 z m -70.38137,36.046297 22.85092,-26.368267 4.39296,33.082587 -22.09118,27.71849 v 0 z m -8.1195,123.32026 c 0,0 -11.837636,-40.62661 -11.837636,-40.62661 8.018646,7.93217 15.851506,14.90223 27.363456,17.66888 l 13.98072,36.22086 c -10.16171,-3.52639 -19.36136,-7.23861 -29.50654,-13.26313 z"
     id="path35-2"
     style="fill:#ffffff;stroke-width:1.95043" /><path
     d="m 365.36007,146.63379 -4.8804,-17.51994 c 0,0 3.69566,-6.70152 -0.2723,-16.91289 -3.96797,-10.21136 -18.14727,-16.454777 -30.65442,-14.039407 -21.16594,4.087527 -44.81344,5.660427 -68.91904,-10.64166 -8.60915,-5.82218 -15.0752,-16.0501 -17.32132,-25.09705 l 26.48411,5.36407 c 3.7656,11.74742 22.55301,18.59788 45.64313,14.13875 25.01429,-4.83076 44.85029,17.78471 49.02059,26.460057 4.17028,8.67534 10.60328,23.89949 0.89965,38.24807 z"
     id="dolni-9"
     style="fill:#00839a;fill-rule:evenodd;stroke:none;stroke-width:0;stroke-dasharray:none" /><path
     d="m 295.62038,56.812073 -21.269,-9.36514 c -0.55739,-2.88627 -4.76078,-6.56538 -8.77838,-9.28239 -14.34857,-9.70363 -35.02332,7.26266 -51.71356,31.9422 -19.40726,28.69715 -46.02376,43.318017 -72.50789,37.953937 l 18.19317,-19.480957 c 17.08215,3.18791 33.35113,-15.92145 39.17332,-24.5306 24.45315,-36.1584 58.88596,-41.31109 82.99155,-25.00899 6.88732,4.65774 12.79601,11.9994 13.91079,17.77194 z"
     id="leva_dolni-1"
     style="fill:#00839a;fill-rule:evenodd;stroke:none;stroke-width:0;stroke-dasharray:none" /><path
     d="m 155.86188,64.341723 c -6.53227,-0.23545 -13.85739,3.17511 -16.96255,7.76665 -13.97322,20.66194 30.73188,89.371127 -17.18299,128.064497 -1.28401,-9.23273 -2.73729,-21.92568 -2.11371,-29.03188 21.85573,-21.18623 -12.17505,-64.24728 8.71373,-96.988847 12.23933,-18.09807 40.15899,-23.39561 45.87484,-20.83494 -4.62464,1.89109 -15.81466,8.54297 -18.32932,11.02452 z"
     id="path111-2"
     style="fill:#00839a;fill-rule:evenodd;stroke:none;stroke-width:0;stroke-dasharray:none" /><path
     d="m 96.983414,162.5356 c -5.40094,3.03896 -7.49386,10.28828 -6.25996,16.67744 1.67216,8.65878 7.442548,25.64923 26.700946,31.26143 l -10.65992,13.04426 C 86.676484,209.93365 82.874394,191.7029 81.102564,181.07102 c -3.14201,-18.85363 10.24071,-37.40559 19.878136,-41.76169 -2.547766,7.47781 -3.576036,17.65609 -3.997286,23.22627 z"
     id="horni-7"
     style="fill:#00839a;fill-rule:evenodd;stroke:none;stroke-width:0;stroke-dasharray:none"
     sodipodi:nodetypes="csccscc" /><path
     d="m 337.38955,133.57301 c -11.2028,37.59138 57.46425,57.26342 27.57705,101.45703 -10.79904,15.96834 -35.76274,31.85569 -55.27679,18.65876 -17.79223,-12.0325 1.02454,-38.61967 16.33519,-29.10184 -6.93696,2.83661 -9.87288,10.88837 -4.13345,14.76982 5.73942,3.88145 14.95561,5.09554 27.37626,-13.27064 19.40726,-28.69713 -48.14501,-42.59667 -21.73833,-112.56428 2.85315,4.43883 8.72873,16.77674 9.86007,20.05115 z"
     id="path114-0"
     style="fill:#00839a;fill-rule:evenodd;stroke:#808080;stroke-width:0px" /><g
     id="g38"
     transform="matrix(1.000171,0,0,1,0.0071539,-0.66400665)"><path
       d="m 209.9856,119.43643 c -0.86801,1.08501 -3.25503,7.16106 -2.96569,7.4504 0.434,0.36167 49.11478,-3.8337 49.54879,-4.26771 0.28933,-0.217 0.0723,-1.22967 -0.36167,-2.24235 l -0.86801,-1.80835 h -22.35121 -22.3512 z"
       id="path30"
       style="fill:#000000;stroke:none" /><path
       d="m 256.27936,125.58482 c -0.28933,0.0723 -11.79044,1.01267 -25.5339,2.02535 -13.74346,1.08501 -26.54658,2.09769 -28.57193,2.38702 l -3.6167,0.50634 -1.59135,3.3997 c -0.86801,1.88068 -1.80835,4.19537 -2.09768,5.20805 l -0.43401,1.80835 2.45936,-0.36167 c 1.30201,-0.21701 17.64949,-1.80835 36.31167,-3.54437 18.66217,-1.80835 34.06931,-3.32736 34.21398,-3.54437 0.14467,-0.14466 -0.50634,-2.09768 -1.51902,-4.34004 l -1.80835,-4.12303 -3.6167,0.217 c -2.02535,0.14467 -3.90603,0.28933 -4.19537,0.36167 z"
       id="path31"
       style="fill:#000000;stroke:none" /><path
       d="m 261.84908,136.65192 c -2.96569,0.36167 -21.33853,2.09769 -40.79638,3.90604 l -35.37132,3.32736 -0.79568,0.72334 c -1.08501,0.86801 -5.13571,9.25875 -4.70171,9.69276 0.36167,0.36167 96.9999,-9.04175 97.57857,-9.47576 0.14467,-0.14467 -0.65101,-2.17002 -1.80835,-4.41237 l -2.17002,-4.12304 -3.25503,-0.0723 c -1.80835,-0.0723 -5.71439,0.14466 -8.68008,0.434 z"
       id="path32"
       style="fill:#000000;stroke:none" /><path
       d="m 246.65894,150.39538 c -59.89255,5.78672 -74.93802,7.30573 -76.02303,7.6674 l -1.22968,0.36167 -2.17002,5.20805 c -1.22968,2.89336 -2.38702,5.78672 -2.60403,6.5824 l -0.434,1.30201 2.31469,-0.36167 c 1.30201,-0.217 29.72927,-3.11036 63.14758,-6.36539 33.41831,-3.32737 60.83289,-6.07606 60.97756,-6.14839 0.14467,-0.0723 -1.01267,-2.60403 -2.53169,-5.64206 l -2.67636,-5.49738 -5.13571,0.0723 c -2.74869,0.0723 -17.93883,1.30202 -33.63531,2.82103 z"
       id="path34"
       style="fill:#000000;stroke:none" /><path
       d="m 289.336,160.95614 c -10.70543,1.44668 -129.62253,13.30946 -133.02223,13.30946 h -2.74869 l -2.89336,6.29306 -2.89336,6.36539 1.22968,0.217 c 0.72334,0.14467 8.24608,-0.434 16.70915,-1.22968 35.95,-3.47203 129.40553,-12.44144 133.96257,-12.87545 2.67636,-0.217 4.99105,-0.651 5.13572,-0.86801 0.36167,-0.57867 -3.32737,-9.76509 -4.55705,-11.21177 -1.08501,-1.30201 -0.72334,-1.30201 -10.92243,0 z"
       id="path36"
       style="fill:#000000;stroke:none" /><path
       d="m 298.01608,175.78461 c -3.3997,0.43401 -21.62787,2.17002 -40.50704,3.97837 -73.34668,6.94407 -122.46146,11.79045 -122.60613,12.07978 -2.09769,4.19537 -6.07606,13.8158 -5.78672,14.10513 0.434,0.43401 189.87675,-15.55181 190.45542,-16.05815 0.217,-0.217 -1.08501,-3.6167 -2.89336,-7.4504 l -3.25503,-7.08873 -4.62937,-0.0723 c -2.53169,-0.0723 -7.37807,0.14466 -10.77777,0.50633 z"
       id="path37"
       style="fill:#000000;stroke:none" /><path
       sodipodi:nodetypes="cccccccccccccccc"
       d="m 323.33298,192.1321 c -2.17002,0.14467 -43.97907,3.68903 -92.94919,7.81207 -48.89778,4.12304 -94.0342,7.88441 -100.18259,8.31841 -38.843358,2.82103 -91.647178,12.94779 -123.69114,23.72555 L -0.00715268,234.08582 0,290 h 468.00098 l -0.0264,-53.02082 -10.82374,-3.54437 C 427.56627,223.52505 391.90561,215.71298 354.0026,210.72194 l -15.26248,-2.02536 -2.74869,-7.52273 c -1.51901,-4.12304 -3.25503,-7.95674 -3.76137,-8.53541 l -1.01267,-1.01268 -1.95302,0.14467 c -1.08501,0.0723 -3.76137,0.217 -5.93139,0.36167 z"
       id="path38"
       style="fill:#000000;stroke:none" /></g></svg>
